#!OML:ASF F:\VICON\USERDATA\INSTALL\rory3\rory3.ASF
:FULLY-SPECIFIED
:DEGREES
932
root 1.29162 17.8666 7.74922 -176.108 -33.1413 175.375
lowerback 13.5181 1.43007 3.79716
upperback -0.67603 2.49965 0.272586
thorax -8.17394 1.036 -2.35715
lowerneck -23.9927 -3.42205 -11.9876
upperneck 30.5778 -2.56222 4.78257
head 14.8921 -2.1129 3.45291
rclavicle 6.92765e-014 -3.18055e-015
rhumerus -37.4558 -14.9739 -71.1711
rradius 34.6753
rwrist 4.7443
rhand -16.9291 9.90189
rfingers 7.12502
rthumb 9.30371 -19.8728
lclavicle 6.92765e-014 -3.18055e-015
lhumerus -32.5883 10.1832 83.353
lradius 29.8525
lwrist -7.5102
lhand -20.462 24.949
lfingers 7.12502
lthumb 5.89378 54.847
rfemur -4.64001 -2.55132 19.2685
rtibia 29.8601
rfoot -20.4513 -8.43286
rtoes -0.320882
lfemur -15.4979 -4.66257 -24.1695
ltibia 28.7777
lfoot -15.524 -10.7799
ltoes -10.8342
933
root 1.26606 17.8778 7.78769 -176.198 -33.3551 175.387
lowerback 13.605 1.31944 3.81981
upperback -0.62486 2.36253 0.361887
thorax -8.17994 0.969624 -2.24934
lowerneck -24.0502 -3.36092 -11.9363
upperneck 30.6172 -2.48224 4.77002
head 14.912 -2.07628 3.45569
rclavicle 9.14409e-015 -4.77083e-015
rhumerus -37.3222 -15.3416 -70.7298
rradius 34.6583
rwrist 4.6574
rhand -16.9013 9.54238
rfingers 7.12502
rthumb 9.33057 -20.2311
lclavicle 9.14409e-015 -4.77083e-015
lhumerus -32.6442 10.2481 83.6498
lradius 29.6483
lwrist -7.80881
lhand -20.6576 24.9751
lfingers 7.12502
lthumb 5.70495 54.8783
rfemur -4.52812 -2.64934 19.1299
rtibia 29.7285
rfoot -20.2413 -8.41899
rtoes -0.715453
lfemur -15.4697 -4.70883 -23.9519
ltibia 28.8647
lfoot -15.7141 -10.0038
ltoes -11.2929
934
root 1.24325 17.8926 7.83036 -176.298 -33.4954 175.482
lowerback 13.7697 1.24846 3.87997
upperback -0.634342 2.29112 0.452642
thorax -8.29012 0.93045 -2.17772
lowerneck -24.0482 -3.29966 -11.8244
upperneck 30.688 -2.42202 4.69579
head 14.9335 -2.05358 3.41834
rclavicle -2.23633e-014 -1.90833e-014
rhumerus -37.2882 -15.862 -70.2533
rradius 34.678
rwrist 4.62527
rhand -17.0695 8.69652
rfingers 7.12502
rthumb 9.16825 -21.0842
lclavicle -2.23633e-014 -1.90833e-014
lhumerus -32.6638 10.4726 83.8608
lradius 29.3316
lwrist -8.3017
lhand -20.9585 24.9584
lfingers 7.12502
lthumb 5.41444 54.8692
rfemur -4.50862 -2.60684 19.0825
rtibia 29.6217
rfoot -19.9327 -8.46438
rtoes -1.29059
lfemur -15.4887 -4.60708 -23.6286
ltibia 28.9182
lfoot -15.5993 -9.2215
ltoes -10.4393
935
root 1.22195 17.9054 7.87249 -176.303 -33.5448 175.48
lowerback 13.9285 1.24218 3.81976
upperback -0.671752 2.28562 0.506945
thorax -8.42607 0.927456 -2.09056
lowerneck -24.0426 -3.2695 -11.7966
upperneck 30.7827 -2.40208 4.69608
head 14.9724 -2.04872 3.41947
rclavicle 1.64991e-014 0
rhumerus -37.2566 -16.735 -69.652
rradius 34.5229
rwrist 4.53674
rhand -17.3341 8.46088
rfingers 7.12502
rthumb 8.91292 -21.3309
lclavicle 1.64991e-014 0
lhumerus -32.7406 10.5455 84.0685
lradius 29.0567
lwrist -8.63221
lhand -20.5677 26.2371
lfingers 7.12502
lthumb 5.79173 56.138
rfemur -4.53565 -2.38645 18.9715
rtibia 29.542
rfoot -19.6284 -8.64793
rtoes -1.48528
lfemur -15.5209 -4.72433 -23.362
ltibia 28.9416
lfoot -15.5191 -8.0135
ltoes -10.1982
936
root 1.19815 17.9184 7.908 -176.261 -33.5733 175.343
lowerback 13.9698 1.23472 3.60681
upperback -0.628822 2.24317 0.551975
thorax -8.41506 0.917529 -1.91417
lowerneck -24.1125 -3.2792 -11.8335
upperneck 30.8297 -2.40736 4.73576
head 15.011 -2.05112 3.4428
rclavicle -6.87795e-014 2.3059e-014
rhumerus -37.1651 -17.6741 -69.0371
rradius 34.5606
rwrist 4.05498
rhand -16.8488 8.22857
rfingers 7.12502
rthumb 9.38119 -21.5427
lclavicle -6.87795e-014 2.3059e-014
lhumerus -32.7923 9.92901 84.7098
lradius 29.2623
lwrist -7.6369
lhand -20.9285 30.5537
lfingers 7.12502
lthumb 5.44335 60.4637
rfemur -4.48934 -2.23792 18.7348
rtibia 29.4636
rfoot -19.4189 -8.81217
rtoes -1.61462
lfemur -15.4632 -4.98802 -23.1682
ltibia 28.9511
lfoot -15.3253 -6.7921
ltoes -9.45977
937
root 1.17189 17.9312 7.94325 -176.241 -33.6332 175.204
lowerback 13.9422 1.21295 3.40409
upperback -0.542811 2.17763 0.591211
thorax -8.31834 0.897792 -1.74206
lowerneck -24.1227 -3.30768 -11.8953
upperneck 30.7934 -2.44859 4.82183
head 15.0033 -2.06059 3.48119
rclavicle 2.49475e-014 -7.95139e-016
rhumerus -37.0642 -18.2721 -68.6195
rradius 34.7164
rwrist 3.06039
rhand -16.4035 7.42316
rfingers 7.12502
rthumb 9.81087 -22.3283
lclavicle 2.49475e-014 -7.95139e-016
lhumerus -32.76 10.4511 84.5861
lradius 28.7924
lwrist -8.85858
lhand -20.4129 27.5779
lfingers 7.12502
lthumb 5.94122 57.4746
rfemur -4.41569 -2.21664 18.4672
rtibia 29.3811
rfoot -19.2799 -8.84098
rtoes -1.49223
lfemur -15.3656 -5.13715 -22.9731
ltibia 28.9628
lfoot -14.9595 -5.76915
ltoes -8.82666
938
root 1.14501 17.9459 7.98081 -176.199 -33.6943 175.068
lowerback 13.9468 1.19426 3.24724
upperback -0.51476 2.12524 0.582111
thorax -8.2983 0.879685 -1.6523
lowerneck -23.9953 -3.31727 -11.9218
upperneck 30.7358 -2.51914 4.95616
head 14.9583 -2.07344 3.52731
rclavicle 1.89839e-014 -1.43125e-014
rhumerus -37.0479 -18.7872 -68.3336
rradius 34.6076
rwrist 2.2068
rhand -16.8607 7.35557
rfingers 7.12502
rthumb 9.36976 -22.4162
lclavicle 1.89839e-014 -1.43125e-014
lhumerus -32.8214 11.1381 84.2218
lradius 28.2921
lwrist -10.4218
lhand -19.4547 23.0362
lfingers 7.12502
lthumb 6.86623 52.9048
rfemur -4.38975 -2.23561 18.1838
rtibia 29.309
rfoot -19.1111 -8.84009
rtoes -1.48507
lfemur -15.2971 -5.25921 -22.7777
ltibia 28.9478
lfoot -14.5475 -4.7761
ltoes -9.25133
939
root 1.11629 17.9611 8.01789 -176.131 -33.7464 174.988
lowerback 13.9553 1.15556 3.17096
upperback -0.528534 2.06134 0.564702
thorax -8.32318 0.851442 -1.61533
lowerneck -23.9543 -3.29598 -11.9092
upperneck 30.7592 -2.5323 5.03308
head 14.9614 -2.06928 3.55567
rclavicle 5.94366e-014 -1.19271e-014
rhumerus -37.0593 -19.2779 -68.094
rradius 34.404
rwrist 1.61111
rhand -17.7154 7.58453
rfingers 7.12502
rthumb 8.54503 -22.2226
lclavicle 5.94366e-014 -1.19271e-014
lhumerus -32.9619 11.2988 84.1659
lradius 28.1467
lwrist -10.8937
lhand -18.9355 22.1605
lfingers 7.12502
lthumb 7.36739 52.0122
rfemur -4.41982 -2.31535 17.9439
rtibia 29.2476
rfoot -18.8866 -8.83356
rtoes -2.19538
lfemur -15.2513 -5.49209 -22.4886
ltibia 28.8974
lfoot -14.1493 -4.00813
ltoes -8.65941
940
root 1.08735 17.9746 8.05637 -176.096 -33.8117 174.871
lowerback 14.0348 1.10789 3.06793
upperback -0.523402 1.98157 0.537806
thorax -8.36896 0.815823 -1.57171
lowerneck -24.0505 -3.29383 -11.8743
upperneck 30.8999 -2.55033 5.05269
head 15.0481 -2.07728 3.55798
rclavicle 4.84041e-014 3.02153e-014
rhumerus -37.0509 -19.7166 -67.9051
rradius 34.3471
rwrist 0.887281
rhand -18.5784 7.45694
rfingers 7.12502
rthumb 7.71211 -22.3824
lclavicle 4.84041e-014 3.02153e-014
lhumerus -33.0292 11.1555 84.2662
lradius 28.0479
lwrist -10.7685
lhand -19.2018 23.309
lfingers 7.12502
lthumb 7.11039 53.1696
rfemur -4.39473 -2.37791 17.6811
rtibia 29.1648
rfoot -18.6399 -8.85829
rtoes -2.84258
lfemur -15.1227 -5.702 -22.2029
ltibia 28.852
lfoot -13.7651 -3.40567
ltoes -7.96585
941
root 1.05697 17.9898 8.09458 -176.067 -33.8104 174.653
lowerback 14.1448 1.08669 2.87031
upperback -0.50183 1.91902 0.480889
thorax -8.41512 0.792093 -1.51075
lowerneck -24.1197 -3.29933 -11.8258
upperneck 31.0551 -2.59016 5.06228
head 15.1379 -2.09613 3.54947
rclavicle -7.74266e-014 -9.54166e-015
rhumerus -37.0906 -20.2263 -67.6663
rradius 34.3523
rwrist 0.481026
rhand -19.1279 7.42812
rfingers 7.12502
rthumb 7.18173 -22.43
lclavicle -7.74266e-014 -9.54166e-015
lhumerus -33.0826 11.1831 84.2539
lradius 27.9278
lwrist -10.8123
lhand -19.1182 23.9265
lfingers 7.12502
lthumb 7.19108 53.7843
rfemur -4.3142 -2.42075 17.3054
rtibia 29.0749
rfoot -18.4112 -8.81611
rtoes -3.17909
lfemur -14.9128 -5.86842 -22.0174
ltibia 28.8031
lfoot -13.3282 -2.79549
ltoes -7.52643
942
root 1.02639 18.0056 8.13014 -176.098 -33.824 174.601
lowerback 14.165 1.05875 2.76011
upperback -0.452229 1.86082 0.473816
thorax -8.37845 0.769097 -1.44371
lowerneck -24.2026 -3.29857 -11.6789
upperneck 31.1132 -2.58735 4.90591
head 15.1778 -2.10193 3.45946
rclavicle -4.02539e-014 1.03368e-014
rhumerus -37.0594 -20.8054 -67.4136
rradius 34.3162
rwrist 0.369133
rhand -19.1533 7.34688
rfingers 7.12502
rthumb 7.15713 -22.5121
lclavicle -4.02539e-014 1.03368e-014
lhumerus -33.0524 11.2961 84.207
lradius 27.7875
lwrist -11.0606
lhand -18.821 23.4632
lfingers 7.12502
lthumb 7.47797 53.3111
rfemur -4.24834 -2.36907 17.0977
rtibia 28.9716
rfoot -18.2504 -8.81818
rtoes -3.24265
lfemur -14.7367 -5.95058 -21.6602
ltibia 28.7554
lfoot -12.9523 -2.34791
ltoes -7.65755
943
root 0.996793 18.0182 8.165 -176.178 -33.8332 174.736
lowerback 14.0955 1.05807 2.74136
upperback -0.395585 1.85618 0.539268
thorax -8.28059 0.770467 -1.35949
lowerneck -24.2013 -3.30525 -11.5678
upperneck 31.0802 -2.5891 4.76019
head 15.1586 -2.10825 3.37702
rclavicle 1.86858e-014 2.94201e-014
rhumerus -36.9695 -21.1761 -67.221
rradius 34.3046
rwrist -0.0212137
rhand -19.0602 7.00654
rfingers 7.12502
rthumb 7.24701 -22.8494
lclavicle 1.86858e-014 2.94201e-014
lhumerus -32.9787 11.2375 84.2776
lradius 27.6698
lwrist -11.0473
lhand -19.0703 23.1486
lfingers 7.12502
lthumb 7.23729 53.0048
rfemur -4.25161 -2.15973 17.0895
rtibia 28.849
rfoot -18.0595 -8.92476
rtoes -3.05798
lfemur -14.6201 -5.97176 -21.096
ltibia 28.7148
lfoot -12.7216 -2.15809
ltoes -7.69883
944
root 0.965404 18.0273 8.20076 -176.212 -33.7858 174.793
lowerback 14.0799 1.06176 2.71676
upperback -0.391227 1.85688 0.546972
thorax -8.26802 0.772254 -1.33706
lowerneck -24.1238 -3.30792 -11.6392
upperneck 31.0964 -2.63296 4.9036
head 15.1565 -2.11792 3.44182
rclavicle -2.98177e-015 4.77083e-015
rhumerus -37.0335 -21.3306 -67.1409
rradius 34.4489
rwrist -0.385568
rhand -19.0813 6.78255
rfingers 7.12502
rthumb 7.22667 -23.0741
lclavicle -2.98177e-015 4.77083e-015
lhumerus -33.0504 11.0287 84.276
lradius 27.7356
lwrist -10.8698
lhand -18.9971 22.7671
lfingers 7.12502
lthumb 7.30792 52.6209
rfemur -4.25992 -1.9897 16.9861
rtibia 28.7027
rfoot -17.8233 -8.97971
rtoes -3.07209
lfemur -14.4995 -5.92958 -20.5969
ltibia 28.6935
lfoot -12.5651 -2.02555
ltoes -7.53185
